<?xml version="1.0" encoding="utf-8" ?><svg xmlns="http://www.w3.org/2000/svg" xmlns:xlink="http://www.w3.org/1999/xlink" width="1024" height="1024" viewBox="0 0 1024 1024"><path fill="#0F2D52" d="M512.224 264.366C514.577 265.085 531.203 281.769 534.567 284.988L625.26 372.443L726.912 470.008C745.601 487.895 764.426 505.53 782.675 523.873C796.257 537.525 788.577 558.155 769.897 559.948C765.213 560.379 760.511 559.341 756.443 556.98C751.784 554.328 745.268 547.375 741.088 543.51C728.879 532.222 717.111 518.846 704.239 508.409C703.895 517.162 704.144 527.352 704.147 536.191L704.198 588.093C704.286 644.957 704.662 703.577 704.023 760.36L499.134 760.502C508.211 755.688 513.799 748.447 519.827 740.298C526.477 729.258 527.203 726.045 530.78 714.072C573.426 712.917 617.596 714.747 660.248 713.766L660.936 468.062C611.04 420.852 561.608 372.023 511.438 325.378C505.378 330.077 493.278 343 487.11 348.983L432.291 401.585C423.31 410.226 407.883 426.144 398.615 433.212C398.489 429.409 398.51 425.528 398.605 421.723C399.024 405.032 398.782 388.156 399.564 371.489C407.54 363.018 419.179 352.561 427.717 344.44L471.262 302.889C479.275 295.403 487.245 287.87 495.171 280.292C500.236 275.426 506.904 268.592 512.224 264.366Z"/><path fill="#0F2D52" d="M513.588 669.19C513.592 669.291 513.596 669.392 513.6 669.493L513.7 691.669C513.751 710.123 512.863 725.57 499.202 739.486C485.263 753.353 466.895 759.426 447.557 759.532C426.962 759.988 406.185 759.763 385.616 760.036C365.433 760.304 350.528 759.728 335.117 744.878C322.17 732.403 316.528 717.002 316.562 699.039C316.6 679.16 317.141 659.203 317.328 639.299L317.969 513.375L317.987 444.583C317.966 431.265 317.183 415.883 318.964 402.89C322.22 379.145 341.121 357.087 365.553 354.093C376.158 352.794 388.21 353.087 399.076 353.027C378.125 366.494 380.551 383.086 380.427 405.468C380.306 418.817 380.277 432.166 380.337 445.515C380.121 479.075 380.106 512.636 380.294 546.196L380.327 636.393C380.356 644.824 379.238 670.689 381.563 677.237C383.762 683.265 388.307 688.147 394.163 690.772C404.45 695.449 438.853 692.102 451.751 693.018C462.294 693.766 478.542 693.493 488.407 689.623C499.871 685.126 507.315 677.443 512.155 666.114C512.749 667.244 513.084 668.013 513.588 669.19Z"/><path fill="#0F2D52" d="M300.433 466.395L300.785 466.739C302.312 472.592 301.454 518.104 301.14 526.585C294.779 533.789 287.376 539.587 280.806 546.435C269.756 557.952 258.02 566.579 242.994 554.659C233.615 544.054 233.359 531.712 243.403 521.458C249.128 515.613 255.066 510.075 260.988 504.426C274.29 491.909 287.439 479.231 300.433 466.395Z"/><path fill="#263E54" fill-opacity="0.97647059" d="M512.155 666.114C514.105 661.742 513.62 666.686 513.597 668.56L513.588 669.19C513.084 668.013 512.749 667.244 512.155 666.114Z"/></svg>