<?xml version="1.0" encoding="UTF-8"?>
<svg id="Calque_1" data-name="Calque 1" xmlns="http://www.w3.org/2000/svg" xmlns:xlink="http://www.w3.org/1999/xlink" viewBox="0 0 968.86 417.91">
  <defs>
    <style>
      .cls-1 {
        fill: url(#Dégradé_sans_nom_12);
      }

      .cls-1, .cls-2, .cls-3, .cls-4 {
        stroke-width: 0px;
      }

      .cls-2 {
        fill: none;
      }

      .cls-3 {
        fill: #fff;
      }

      .cls-4 {
        fill: #d9b38f;
      }
    </style>
    <linearGradient id="Dégradé_sans_nom_12" data-name="Dégradé sans nom 12" x1="827.32" y1="143.06" x2="664.05" y2="356.35" gradientUnits="userSpaceOnUse">
      <stop offset="0" stop-color="#fff"/>
      <stop offset="1" stop-color="#d9b38f"/>
    </linearGradient>
  </defs>
  <path class="cls-2" d="m392.16,113.67c13.6,10.14,26.93,20.62,40.41,30.91.91.69,2.17.92,3.29,1.33-1.27-2.46.37-5.6-2.81-7.9-10.02-7.22-19.65-14.97-29.44-22.51-5.03-3.87-10.06-7.73-15.1-11.59-1.47,4.56.2,7.18,3.65,9.76Z"/>
  <path class="cls-2" d="m393.29,177.09c-1-.77-2.06-1.47-3.31-2.35q-.54,6.27,3.73,9.56c5.09,3.93,10.17,7.86,15.26,11.78,9.19,7.06,18.39,14.11,28.38,21.77-.21-3.19-.37-5.52-.52-7.83-.68-.32-1.42-.56-2.01-1.01-13.85-10.62-27.69-21.28-41.53-31.91Z"/>
  <path class="cls-2" d="m392.69,169.96c3.75,2.42,7.15,5.38,10.7,8.11,10.74,8.25,21.48,16.51,32.53,25,1.26-4.45.18-7.38-3.4-9.64-3.06-1.93-5.82-4.35-8.7-6.56-11.4-8.75-22.79-17.5-34.35-26.38-1.13,4.16-.42,7.13,3.22,9.47Z"/>
  <path class="cls-2" d="m393.16,156.11c10.43,7.69,20.57,15.76,30.85,23.66,3.98,3.06,8.01,6.07,12.34,9.35.61-4.2.25-7.01-3.3-9.46-6.87-4.74-13.29-10.14-19.92-15.23-7.75-5.96-15.52-11.89-23.58-18.06-1.32,4.68.25,7.27,3.61,9.75Z"/>
  <path class="cls-2" d="m392.12,99.45c9.85,7.26,19.42,14.9,29.12,22.36,4.54,3.49,9.14,6.9,13.93,10.5.77-4.49-.17-7.3-3.77-9.76-6.59-4.51-12.69-9.74-19.03-14.61-7.85-6.04-15.74-12.02-23.77-18.14-1.52,4.63.17,7.18,3.52,9.65Z"/>
  <path class="cls-2" d="m448.25,228.04l-.66,121.66c1.64.3,3.29.59,4.95.89l.68-126.87-4.98,4.32Z"/>
  <path class="cls-2" d="m474.8,204.98l-.8,149.23c1.68.26,3.33.51,4.95.75l.83-154.31-4.98,4.33Z"/>
  <path class="cls-2" d="m461.53,216.5l-.73,135.53c1.66.29,3.31.57,4.95.84l.76-140.69-4.98,4.32Z"/>
  <path class="cls-2" d="m392.76,212.18c7.34,5.15,14.29,10.85,21.41,16.31,7.36,5.65,14.74,11.3,22.36,17.14.79-4.04.47-6.84-3.02-9.4-11.64-8.53-22.98-17.45-34.43-26.22-2.94-2.25-5.87-4.51-9.13-7.02-.77,4-.67,6.74,2.81,9.18Z"/>
  <path class="cls-2" d="m488.07,193.45l-.88,162.63s.01,0,.02,0c1.64.23,3.29.42,4.93.63l.9-167.59-4.98,4.33Z"/>
  <path class="cls-2" d="m633.39,311.32l-15.87,2.05c-3.04.41-5.66.93-7.79,1.56-2,.59-3.65,1.39-4.93,2.38-1.21.95-2.09,2.09-2.66,3.49-.61,1.47-.92,3.35-.95,5.6-.02,1.61.25,3.11.8,4.47.54,1.36,1.32,2.5,2.37,3.49,1.04.99,2.35,1.78,3.89,2.34,1.58.58,3.42.88,5.46.9,2.82.06,5.42-.48,7.76-1.52,2.35-1.04,4.42-2.52,6.15-4.39,1.74-1.88,3.13-4.19,4.14-6.85,1.02-2.68,1.55-5.64,1.58-8.82l.05-4.7Z"/>
  <path class="cls-2" d="m848.78,236.8c1.94,2.3,4.34,4.09,7.15,5.34,2.83,1.26,6.06,1.92,9.6,1.96,3.63.03,6.88-.53,9.64-1.69,2.73-1.14,5.09-2.85,7-5.07,1.94-2.25,3.44-5.07,4.47-8.38,1.05-3.39,1.6-7.34,1.65-11.73.1-8.92-1.79-15.8-5.62-20.45-3.79-4.61-9.17-6.9-16.42-6.97-.11,0-.22,0-.33,0-3.42,0-6.55.58-9.32,1.73-2.83,1.17-5.29,2.92-7.32,5.19-2.05,2.29-3.66,5.18-4.8,8.57-1.15,3.44-1.76,7.43-1.81,11.86-.04,4.14.48,7.92,1.56,11.22,1.06,3.27,2.6,6.1,4.56,8.43Z"/>
  <path class="cls-2" d="m393.26,254.66c12.9,9.67,25.61,19.6,38.4,29.42,1.74,1.34,3.56,2.59,5.35,3.89,1.26-4.59-.36-7.31-3.87-9.83-8.08-5.79-15.83-12.03-23.71-18.09-6.31-4.85-12.63-9.7-19.28-14.81-1.19,4.46-.04,7.04,3.12,9.41Z"/>
  <path class="cls-2" d="m432.3,151.16c-9.48-6.92-18.66-14.26-27.96-21.41-5.03-3.87-10.08-7.69-15.3-11.68-.96,4.26-.3,7.05,3.27,9.42,5.53,3.68,10.6,8.05,15.87,12.11,8.99,6.92,17.99,13.84,27.26,20.96.3-.9.45-1.71.53-2.47,0-.53,0-1.07,0-1.59-.25-2.13-1.51-3.77-3.67-5.35Z"/>
  <path class="cls-2" d="m434.5,292.84c-12.75-9.41-25.18-19.26-37.75-28.92-1.95-1.5-3.99-2.88-6.07-4.38-1.32,4.68.15,7.72,3.93,9.77.74.4,1.37,1,2.04,1.51,13.51,10.4,27.02,20.79,41.09,31.62.58-4.29.22-7.05-3.23-9.6Z"/>
  <path class="cls-2" d="m433.53,250.05c-5.24-3.48-10.05-7.6-15.05-11.44-9.3-7.15-18.61-14.29-28.54-21.91-.1,3.83-.64,6.54,2.48,8.88,14.07,10.55,27.93,21.37,41.88,32.09.9.69,1.88,1.28,2.91,1.98.12-.51.2-1,.26-1.48,0-.78,0-1.56.01-2.33-.27-2.34-1.53-4.16-3.95-5.78Z"/>
  <polygon class="cls-2" points="464.2 102.58 461.57 104.92 460.03 197.15 464.07 193.75 464.2 102.58"/>
  <path class="cls-2" d="m272.92,299.83c.03-5.3.06-10.24.08-15.17-5.11-.03-10.01-.05-14.83-.08-.03,5.23-.05,10.16-.08,15.18,5,.03,9.73.05,14.83.08Z"/>
  <polygon class="cls-2" points="471.21 96.34 468.58 98.68 468.44 190.07 470.95 187.96 471.21 96.34"/>
  <path class="cls-2" d="m278.09,299.76c5.18.03,10.12.05,15.08.08.03-5.19.06-10.2.08-15.18-5.14-.03-9.99-.05-15.08-.08-.03,5.13-.05,10.04-.08,15.18Z"/>
  <polygon class="cls-2" points="478.23 90.1 475.6 92.44 475.33 184.29 477.73 182.27 478.23 90.1"/>
  <path class="cls-2" d="m278.13,304.1c-.03,5.22-.06,10.24-.08,15.35,5.1.03,9.95.05,15.06.08.03-5.33.06-10.35.08-15.35-5.16-.03-10.09-.05-15.06-.08Z"/>
  <path class="cls-2" d="m272.76,304.08c-5.09-.03-9.91-.05-14.69-.08-.03,5.25-.06,10.27-.08,15.34,5,.03,9.74.05,14.69.08.03-5.34.06-10.35.08-15.34Z"/>
  <path class="cls-2" d="m501.34,181.92l-.95,175.86c1.65.2,3.3.39,4.95.58l.97-180.75-4.98,4.32Z"/>
  <path class="cls-2" d="m514.62,170.39l-1.02,188.88c1.65.18,3.3.35,4.95.52l1.04-193.73-4.98,4.33Z"/>
  <polygon class="cls-2" points="499.26 71.38 496.63 73.72 496.13 166.8 498.76 164.59 499.26 71.38"/>
  <polygon class="cls-2" points="485.24 83.86 482.61 86.2 482.11 178.58 484.74 176.37 485.24 83.86"/>
  <polygon class="cls-2" points="492.25 77.62 489.62 79.96 489.12 172.69 491.75 170.48 492.25 77.62"/>
  <path class="cls-4" d="m447.6,349.69l.66-121.66,4.98-4.32-.68,126.87c2.74.49,5.5.98,8.25,1.45l.73-135.53,4.98-4.32-.76,140.69c2.8.47,5.56.91,8.25,1.33l.8-149.23,4.98-4.33-.83,154.31c2.87.42,5.65.8,8.25,1.12l.88-162.63,4.98-4.33-.9,167.59c2.75.36,5.5.73,8.25,1.06l.95-175.86,4.98-4.32-.97,180.75c2.75.32,5.5.63,8.25.92l1.02-188.88,4.98-4.33-1.04,193.73c1.31.13,2.61.25,3.92.37l1.17-216.49-22.8,19.16.56-103.57-41.96,36.13-1.63,103.61-13.6,11.43-.74,136.47v2.03c1.35.25,2.73.5,4.12.75Zm49.03-275.97l2.63-2.34-.5,93.21-2.63,2.21.5-93.07Zm-7.01,6.24l2.63-2.34-.5,92.86-2.63,2.21.5-92.73Zm-7.01,6.24l2.63-2.34-.5,92.51-2.63,2.21.5-92.38Zm-7.01,6.24l2.63-2.34-.5,92.17-2.4,2.02.27-91.85Zm-7.01,6.24l2.63-2.34-.26,91.62-2.51,2.11.14-91.4Zm-7.01,6.24l2.63-2.34-.13,91.17-4.04,3.4,1.54-92.23Z"/>
  <path class="cls-4" d="m368.82,262.48c2.83,2.7,5.75,5.31,8.94,8.24.48-89.86.97-179.04,1.45-268.63-17.99,9.47-35.67,18.74-53.27,28.14-.84.45-1.41,2.14-1.43,3.26-.27,24.15-.47,48.31-.62,72.46-.23,36.41-.38,72.83-.68,109.24-.02,2.86.99,4.75,2.95,6.61,14.25,13.53,28.42,27.13,42.64,40.68Z"/>
  <path class="cls-4" d="m435.97,156.51c0,.53,0,1.06,0,1.59.06-.56.07-1.09,0-1.59Z"/>
  <path class="cls-4" d="m437.49,255.83c0,.77,0,1.55-.01,2.33.11-.84.1-1.6.01-2.33Z"/>
  <path class="cls-4" d="m434.59,328.59c1.37,1.44,2.9,2.73,4.36,4.11.12-.27.29-.47.29-.68-.29-18.68-.57-37.37-.98-56.05-.02-.96-.92-2.16-1.75-2.8-14.28-11.07-28.53-22.18-43-33-3.37-2.52-3.48-5.18-2.59-8.99,15.8,12.14,31.27,24.02,46.49,35.71.02-2.94.03-5.82.05-8.73-.06.47-.14.96-.26,1.48-1.03-.69-2.01-1.28-2.91-1.98-13.95-10.71-27.81-21.53-41.88-32.09-3.11-2.33-2.57-5.05-2.48-8.88,9.93,7.62,19.24,14.76,28.54,21.91,5,3.84,9.81,7.96,15.05,11.44,2.42,1.61,3.68,3.44,3.95,5.78.05-7.58.08-15.11.04-22.62,0-.93-.95-2.11-1.78-2.75-14.08-10.93-28.1-21.94-42.41-32.56-3.53-2.62-3.59-5.39-3.04-9.34,15.84,12.16,31.31,24.03,46.78,35.91.28-.19.56-.37.83-.56-.36-4.63-.72-9.26-1.08-13.89.03.02.07.03.1.04,0-9.3-.35-18.62.13-27.89.3-5.79-2.56-8.85-6.73-11.96-12.71-9.49-25.07-19.43-37.83-28.84-3.49-2.57-3.62-5.29-2.96-9.27,15.72,12.09,31.08,23.9,46.38,35.66.02-3.29.03-6.48.05-9.65-.08.76-.23,1.57-.53,2.47-9.27-7.13-18.27-14.04-27.26-20.96-5.27-4.06-10.34-8.43-15.87-12.11-3.57-2.38-4.23-5.16-3.27-9.42,5.22,3.98,10.28,7.81,15.3,11.68,9.31,7.16,18.48,14.5,27.96,21.41,2.17,1.58,3.43,3.21,3.67,5.35.02-3.54.04-7.04.06-10.53-.02,0-.04-.01-.05-.02.14-.42.36-.83.35-1.25-.11-8.11-.2-16.23-.48-24.33-.03-.95-.89-2.14-1.7-2.77-14.17-11.01-28.3-22.08-42.68-32.81-3.46-2.58-3.69-5.3-2.94-9.29,15.72,12.06,31.08,23.86,46.93,36.02.33-4.72-.17-7.73-3.82-10.43-13.37-9.85-26.27-20.34-39.64-30.2-3.53-2.6-4.41-5.25-3.35-9.51,15.56,11.94,30.93,23.73,46.31,35.54.03-6.27.16-12.08.08-17.89-.18-12.61-.37-25.23-.81-37.83-.06-1.62-1.18-3.67-2.47-4.72-9.57-7.83-19.31-15.45-29-23.13-5.47-4.34-10.96-8.65-16.92-13.35-.07,1.39-.14,2.07-.14,2.75-.49,90.19-.98,180.39-1.39,270.58,0,1.39.66,3.11,1.61,4.11,16.16,17.11,32.42,34.13,48.67,51.15Zm3.14-26.14c-14.07-10.83-27.58-21.22-41.09-31.62-.67-.52-1.3-1.11-2.04-1.51-3.77-2.05-5.24-5.08-3.93-9.77,2.08,1.5,4.12,2.88,6.07,4.38,12.57,9.66,25,19.5,37.75,28.92,3.46,2.55,3.82,5.31,3.23,9.6Zm-47.59-57.19c6.66,5.11,12.97,9.96,19.28,14.81,7.88,6.06,15.64,12.3,23.71,18.09,3.51,2.51,5.13,5.24,3.87,9.83-1.79-1.3-3.6-2.55-5.35-3.89-12.79-9.82-25.5-19.75-38.4-29.42-3.16-2.37-4.31-4.95-3.12-9.41Zm8.94-35.24c11.45,8.77,22.8,17.69,34.43,26.22,3.49,2.55,3.8,5.36,3.02,9.4-7.62-5.84-14.99-11.49-22.36-17.14-7.12-5.46-14.07-11.16-21.41-16.31-3.48-2.44-3.58-5.19-2.81-9.18,3.26,2.51,6.19,4.77,9.13,7.02Zm37.75,0c.15,2.32.31,4.64.52,7.83-9.99-7.66-19.19-14.71-28.38-21.77-5.1-3.91-10.18-7.85-15.26-11.78q-4.27-3.3-3.73-9.56c1.25.89,2.31,1.58,3.31,2.35,13.84,10.64,27.68,21.29,41.53,31.91.59.45,1.33.69,2.01,1.01Zm-47.28-63.65c8.06,6.17,15.83,12.1,23.58,18.06,6.63,5.1,13.04,10.49,19.92,15.23,3.55,2.45,3.92,5.27,3.3,9.46-4.33-3.28-8.36-6.28-12.34-9.35-10.27-7.9-20.42-15.97-30.85-23.66-3.37-2.48-4.93-5.06-3.61-9.75Zm-.08,14.12c11.56,8.88,22.96,17.63,34.35,26.38,2.88,2.21,5.64,4.63,8.7,6.56,3.57,2.26,4.65,5.19,3.4,9.64-11.05-8.49-21.79-16.75-32.53-25-3.55-2.73-6.95-5.7-10.7-8.11-3.64-2.34-4.35-5.31-3.22-9.47Zm-.87-70.69c8.03,6.12,15.92,12.11,23.77,18.14,6.34,4.88,12.44,10.11,19.03,14.61,3.61,2.46,4.54,5.27,3.77,9.76-4.78-3.6-9.39-7.01-13.93-10.5-9.7-7.46-19.27-15.1-29.12-22.36-3.35-2.47-5.04-5.02-3.52-9.65Zm-.09,14.12c5.04,3.87,10.07,7.72,15.1,11.59,9.79,7.54,19.43,15.28,29.44,22.51,3.19,2.3,1.54,5.44,2.81,7.9-1.12-.41-2.39-.64-3.29-1.33-13.48-10.29-26.82-20.77-40.41-30.91-3.45-2.57-5.12-5.2-3.65-9.76Z"/>
  <path class="cls-3" d="m954.06,368.13c-25.36-4.6-51.28-4.6-76.92-4.9-90.79,0-181.71,5.05-272.07,1.93-27.58-.85-55.18-2.36-82.59-5.01-1.31-.13-2.62-.24-3.92-.37-1.65-.17-3.3-.34-4.95-.52-2.75-.29-5.5-.6-8.25-.92-1.65-.19-3.3-.38-4.95-.58-2.75-.33-5.5-.7-8.25-1.06-1.64-.22-3.29-.41-4.93-.63,0,0-.01,0-.02,0-2.6-.32-5.37-.7-8.25-1.12-1.62-.24-3.27-.48-4.95-.75-2.7-.42-5.45-.87-8.25-1.33-1.64-.27-3.29-.56-4.95-.84-2.75-.47-5.51-.96-8.25-1.45-1.66-.3-3.31-.59-4.95-.89-1.39-.25-2.77-.5-4.13-.75v-2.03c-23.83-24.78-55.95-56.67-78.94-79.85-24.85-25.07-61.07-59.82-86.48-85.08l-4.95-4.85-4.7,5.1c-51.43,55.74-107.47,116.52-157.28,173.81-37.71,7.5-75.54,16.1-111.13,30.85,120.2-2.6,241.45-2.39,360.88,8.67,29.63,2.91,58.83,7.65,87.93,12.97,31.08,5.11,62.67,7.65,93.97,8.89,102.91,3.3,205.43-10.21,306.17-28.48,27.83-4.64,77.36-15.07,104.81-16.74,5.02-.24,10.05-.34,15.1.53-4.62-2.22-9.73-3.57-14.8-4.58Zm-809.23-13.01c43.11-38.15,86.23-76.3,129.61-114.7,34.35,31.25,95.52,74.79,130.21,106.35-79.05-2.95-183.45-9.31-259.83,8.34Z"/>
  <path class="cls-4" d="m274.45,240.43c-43.39,38.39-86.5,76.54-129.61,114.7,76.38-17.65,180.77-11.3,259.83-8.34-34.69-31.56-95.87-75.1-130.21-106.35Zm-1.45,44.22c-.03,4.93-.05,9.87-.08,15.17-5.1-.03-9.83-.05-14.83-.08.03-5.02.05-9.95.08-15.18,4.82.03,9.72.05,14.83.08Zm-14.93,19.35c4.79.03,9.6.05,14.69.08-.03,4.99-.05,10-.08,15.34-4.95-.03-9.69-.05-14.69-.08.03-5.07.05-10.09.08-15.34Zm19.99,15.46c.03-5.11.05-10.13.08-15.35,4.98.03,9.9.05,15.06.08-.03,5.01-.05,10.02-.08,15.35-5.11-.03-9.96-.05-15.06-.08Zm15.11-19.61c-4.96-.03-9.89-.05-15.08-.08.03-5.14.05-10.05.08-15.18,5.09.03,9.94.05,15.08.08-.03,4.98-.05,9.99-.08,15.18Z"/>
  <path class="cls-3" d="m576.41,208.68c.04-3.34.51-6.41,1.41-9.14.89-2.69,2.11-5.01,3.64-6.9,1.51-1.86,3.28-3.31,5.27-4.32,1.95-.99,4.11-1.51,6.37-1.46,10.06.11,14.89,6.73,14.74,20.24l-.47,43.92,12.57.13.46-42.35c.03-3.1.52-6.01,1.46-8.66.93-2.63,2.2-4.94,3.78-6.86,1.56-1.89,3.39-3.38,5.43-4.44,2-1.03,4.12-1.58,6.36-1.52,2.61.03,4.87.42,6.7,1.17,1.74.71,3.13,1.81,4.25,3.36,1.16,1.61,2.03,3.75,2.57,6.37.58,2.75.84,6.19.8,10.22l-.46,43.03,12.57.13.49-45.08c.11-9.88-1.89-17.48-5.94-22.58-4.14-5.23-10.42-7.93-18.67-8.01-5.35-.09-10.18,1.31-14.45,4.05-3.21,2.06-5.99,4.87-8.3,8.38-.45-.96-.97-1.88-1.55-2.76-1.34-2.04-2.97-3.83-4.83-5.32-1.87-1.49-4.02-2.67-6.39-3.51-2.37-.84-4.92-1.28-7.58-1.31-8.14-.07-14.88,2.91-19.97,8.91l.08-7.49-12.57-.13-.8,73.77,12.57.14.45-42.01Z"/>
  <path class="cls-3" d="m839.04,244.6c3.05,3.39,6.8,6.05,11.14,7.93,4.32,1.87,9.25,2.84,14.68,2.9.17,0,.35,0,.52,0,5.31,0,10.18-.89,14.47-2.66,4.45-1.83,8.29-4.48,11.42-7.87,3.11-3.38,5.55-7.46,7.24-12.15,1.69-4.65,2.57-9.88,2.63-15.53.06-5.92-.67-11.3-2.18-16-1.53-4.76-3.8-8.87-6.75-12.22-2.97-3.38-6.64-6.01-10.93-7.82-4.25-1.79-9.08-2.73-14.36-2.79-5.5-.05-10.57.78-15.07,2.5-4.55,1.73-8.5,4.32-11.74,7.68-3.23,3.35-5.77,7.49-7.55,12.3-1.76,4.77-2.68,10.24-2.74,16.26-.06,5.57.7,10.73,2.26,15.34,1.58,4.66,3.92,8.74,6.96,12.11Zm5.43-39.31c1.14-3.39,2.75-6.27,4.8-8.57,2.03-2.27,4.49-4.02,7.32-5.19,2.77-1.15,5.91-1.73,9.32-1.73.11,0,.22,0,.33,0,7.26.08,12.63,2.36,16.42,6.97,3.82,4.65,5.71,11.53,5.62,20.45-.05,4.39-.6,8.34-1.65,11.73-1.03,3.31-2.53,6.14-4.47,8.38-1.92,2.22-4.27,3.93-7,5.07-2.76,1.16-6.02,1.72-9.64,1.69-3.54-.04-6.77-.7-9.6-1.96-2.8-1.25-5.21-3.05-7.15-5.34-1.97-2.32-3.5-5.16-4.56-8.43-1.08-3.3-1.6-7.08-1.56-11.22.05-4.42.66-8.41,1.81-11.86Z"/>
  <polygon class="cls-3" points="581.57 334.86 542.23 334.44 543.13 250.33 543.17 250.33 544.27 148.56 531.36 148.42 530.32 244.62 530.28 244.62 529.18 346.39 581.44 346.95 581.57 334.86"/>
  <path class="cls-4" d="m645.57,347.65l.51-47.4c.1-9.1-2-16.13-6.25-20.89-4.29-4.81-10.68-7.3-18.99-7.39-2.14-.02-4.36.13-6.62.46-2.24.33-4.46.81-6.59,1.42-2.12.61-4.18,1.36-6.11,2.21-1.96.87-3.74,1.87-5.31,2.96l-.8.56-.16,14.7,3.19-2.67c6.64-5.56,13.91-8.32,21.52-8.26,4.63.05,7.96,1.49,10.17,4.41,2.09,2.75,3.21,6.89,3.35,12.32l-19.6,2.62c-8.3,1.1-14.66,3.68-18.9,7.65-4.33,4.07-6.57,9.6-6.64,16.44-.03,3.2.5,6.19,1.59,8.88,1.1,2.72,2.7,5.09,4.76,7.04,2.05,1.95,4.58,3.48,7.52,4.55,2.89,1.06,6.17,1.61,9.74,1.65.11,0,.23,0,.34,0,5.17,0,9.9-1.29,14.07-3.82,2.55-1.56,4.8-3.52,6.73-5.86l-.09,8.27,12.57.14Zm-13.81-22.81c-1.01,2.66-2.4,4.97-4.14,6.85-1.73,1.87-3.79,3.35-6.15,4.39-2.34,1.04-4.94,1.58-7.76,1.52-2.05-.02-3.88-.33-5.46-.9-1.54-.56-2.85-1.35-3.89-2.34-1.05-.99-1.82-2.13-2.37-3.49-.55-1.36-.81-2.86-.8-4.47.02-2.25.34-4.13.95-5.6.58-1.4,1.45-2.54,2.66-3.49,1.27-.99,2.93-1.79,4.93-2.38,2.13-.63,4.75-1.15,7.79-1.56l15.87-2.05-.05,4.7c-.03,3.17-.57,6.14-1.58,8.82Z"/>
  <path class="cls-4" d="m823.21,261.92h.1c1.12,0,2.18-.2,3.14-.59.97-.4,1.85-.97,2.61-1.69.79-.74,1.41-1.63,1.84-2.65.42-1,.65-2.07.66-3.18.01-1.18-.21-2.29-.65-3.29-.43-.97-1.02-1.83-1.76-2.55-.74-.73-1.63-1.3-2.64-1.7-.99-.39-2.04-.59-3.13-.6h-.1c-2.14,0-4.02.74-5.61,2.2-1.64,1.51-2.48,3.45-2.51,5.77-.03,2.35.77,4.34,2.37,5.91,1.57,1.55,3.48,2.35,5.67,2.37Z"/>
  <rect class="cls-4" x="785.85" y="306.38" width="73.77" height="12.57" transform="translate(501.27 1132) rotate(-89.39)"/>
  <path class="cls-4" d="m864.17,340.3c-1.39-.02-2.87-.17-4.41-.46-1.54-.29-3.1-.73-4.62-1.3-1.54-.57-3.06-1.27-4.51-2.06-1.43-.78-2.77-1.67-3.98-2.65l-3.08-2.5-.16,14.8.91.57c5.08,3.19,11.39,4.84,18.78,4.92.17,0,.33,0,.5,0,3.61,0,7.02-.42,10.14-1.26,3.31-.89,6.26-2.24,8.75-4.03,2.54-1.82,4.57-4.11,6.03-6.8,1.47-2.71,2.23-5.83,2.27-9.27.03-2.78-.38-5.29-1.22-7.45-.85-2.18-2.17-4.19-3.92-5.95-1.69-1.71-3.86-3.31-6.46-4.76-2.51-1.41-5.51-2.84-8.88-4.25-2.57-1.1-4.78-2.13-6.55-3.08-1.68-.89-3.05-1.83-4.08-2.77-.94-.86-1.63-1.82-2.05-2.86-.43-1.06-.64-2.34-.63-3.81.01-1.39.31-2.61.89-3.73.59-1.13,1.42-2.11,2.48-2.92,1.09-.84,2.44-1.5,4-1.95,1.62-.47,3.46-.71,5.43-.68,5.65.06,10.99,1.72,15.85,4.92l2.93,1.93.15-13.91-1.05-.54c-4.73-2.45-10.34-3.73-16.67-3.8-3.46-.02-6.8.4-9.95,1.3-3.19.91-6.06,2.28-8.53,4.06-2.51,1.81-4.54,4.06-6.04,6.69-1.53,2.67-2.32,5.76-2.36,9.17-.03,2.68.35,5.13,1.14,7.28.79,2.17,2.02,4.19,3.67,6,1.6,1.76,3.66,3.41,6.12,4.89,2.37,1.43,5.24,2.86,8.52,4.24,2.36,1.01,4.51,1.99,6.37,2.9,1.77.87,3.29,1.81,4.53,2.8,1.15.92,2.03,1.93,2.62,3.01.55,1.01.82,2.25.81,3.68-.04,4.19-1.52,9.75-13.76,9.62Z"/>
  <path class="cls-1" d="m701.31,210.43c.03-6.2.03-11.96,0-17.13.3,1.49.6,2.85.89,4.07l39.09,155.48,6.5.03,40.69-156.02c.32-1.18.66-2.56,1.01-4.14-.32,8.45-.49,15.05-.52,19.72l-.76,140.66,12.93.07,1.1-204.45-14.07-.08-39.96,152.67c-.92,3.57-1.7,6.95-2.33,10.05l-.99,4.92c-.35-1.83-.72-3.61-1.1-5.32-.74-3.31-1.51-6.62-2.29-9.83l-38-152.94-14.7-.08-1.1,204.45,12.85.07.77-142.21Z"/>
  <circle class="cls-3" cx="538.8" cy="134.63" r="8.55" transform="translate(-16.53 128) rotate(-13.34)"/>
</svg>