<?xml version="1.0" encoding="UTF-8"?>
<svg id="Calque_1" data-name="Calque 1" xmlns="http://www.w3.org/2000/svg" xmlns:xlink="http://www.w3.org/1999/xlink" viewBox="0 0 759.3 372.34">
  <defs>
    <style>
      .cls-1, .cls-2 {
        font-family: SegoeUI-Semilight, 'Segoe UI';
        font-size: 109.63px;
        font-weight: 300;
      }

      .cls-1, .cls-3 {
        fill: #d9b38f;
      }

      .cls-4 {
        fill: url(#Dégradé_sans_nom_28);
      }

      .cls-4, .cls-5, .cls-3 {
        stroke-width: 0px;
      }

      .cls-2, .cls-5 {
        fill: #fff;
      }
    </style>
    <linearGradient id="Dégradé_sans_nom_28" data-name="Dégradé sans nom 28" x1="427.03" y1="272.49" x2="319.11" y2="425.99" gradientTransform="translate(172.7 -152.11) rotate(.31)" gradientUnits="userSpaceOnUse">
      <stop offset="0" stop-color="#fff"/>
      <stop offset=".12" stop-color="#f8f2eb"/>
      <stop offset=".38" stop-color="#e7d0ba"/>
      <stop offset=".58" stop-color="#d9b38f"/>
    </linearGradient>
  </defs>
  <path class="cls-3" d="m358.49,127.62l.44-81.17-32.89,28.31-1.27,81.2-10.66,8.96-.67,124.95,3.24.02.6-111.17,3.9-3.38-.62,114.58,6.47.03.65-120.27,3.9-3.38-.67,123.67,6.47.03.7-129.36,3.9-3.39-.72,132.77,6.47.03.75-138.44,3.9-3.39-.76,141.86,6.47.03.8-147.54,3.9-3.38-.81,150.95,6.47.03.84-156.63,3.9-3.39-.86,160.04,3.07.02.96-177.6-17.87,15.02Zm-1.24-71.67l-.39,73.05-2.06,1.73.39-72.94,2.06-1.84Zm-5.5,4.89l-.39,72.77-2.06,1.73.39-72.67,2.06-1.83Zm-5.49,4.89l-.39,72.5-2.06,1.73.39-72.4,2.06-1.84Zm-5.49,4.89l-.39,72.23-1.88,1.58.21-71.98,2.06-1.83Zm-5.5,4.89l-.2,71.81-1.97,1.65.11-71.63,2.06-1.83Zm-8.77,79l1.21-72.28,2.06-1.83-.1,71.45-3.17,2.66Z"/>
  <path class="cls-3" d="m263.17,1.64c-.38,70.21-.76,140.11-1.13,210.53-2.5-2.3-4.79-4.34-7.01-6.46-11.14-10.62-22.25-21.28-33.42-31.88-1.54-1.46-2.33-2.94-2.31-5.18.24-28.54.35-57.08.53-85.61.12-18.93.27-37.86.48-56.79,0-.88.46-2.2,1.12-2.55,13.79-7.37,27.64-14.63,41.74-22.06Z"/>
  <path class="cls-3" d="m307.69,114.4c-.03,5.58-.06,11.15-.09,17.06-11.99-9.21-24.03-18.47-36.35-27.94-.52,3.12-.42,5.25,2.32,7.27,10,7.37,19.69,15.17,29.65,22.6,3.27,2.44,5.51,4.83,5.28,9.37-.38,7.27-.1,14.57-.1,21.86-.55-.27-1.17-.46-1.66-.83-10.86-8.33-21.7-16.67-32.55-25.01-.79-.6-1.62-1.15-2.6-1.84q-.42,4.91,2.93,7.49c3.99,3.08,7.97,6.16,11.96,9.23,7.2,5.53,14.41,11.06,22.24,17.06-.17-2.53-.29-4.36-.41-6.2.28,3.65.57,7.3.85,10.94-.22.15-.44.29-.65.44-12.13-9.31-24.25-18.61-36.66-28.14-.43,3.09-.38,5.26,2.38,7.32,11.21,8.33,22.2,16.95,33.24,25.52.65.51,1.39,1.43,1.39,2.16.05,8.73-.03,17.47-.08,26.39-11.93-9.16-24.05-18.47-36.43-27.98-.69,2.98-.61,5.07,2.03,7.04,11.34,8.48,22.51,17.19,33.7,25.86.65.51,1.35,1.45,1.37,2.2.32,14.64.54,29.28.76,43.92,0,.16-.13.32-.23.53-1.15-1.08-2.34-2.09-3.42-3.22-12.74-13.34-25.47-26.68-38.14-40.08-.74-.79-1.26-2.14-1.26-3.22.32-70.68.71-141.37,1.09-212.05,0-.53.05-1.07.11-2.15,4.67,3.68,8.97,7.07,13.26,10.47,7.6,6.02,15.23,12,22.73,18.13,1.01.82,1.89,2.42,1.93,3.7.34,9.88.49,19.77.63,29.65.06,4.55-.03,9.11-.06,14.02-12.05-9.25-24.1-18.49-36.3-27.85-.83,3.34-.14,5.41,2.63,7.45,10.47,7.73,20.59,15.94,31.06,23.67,2.86,2.11,3.26,4.47,3,8.17-12.42-9.53-24.46-18.78-36.78-28.23-.59,3.12-.41,5.26,2.3,7.28,11.27,8.41,22.34,17.09,33.45,25.71.64.5,1.31,1.42,1.33,2.17.21,6.35.28,12.71.37,19.07,0,.36-.2.72-.31,1.08-1.13-1.95.29-4.48-2.26-6.32-7.85-5.66-15.4-11.73-23.07-17.64-3.94-3.03-7.89-6.06-11.83-9.08-1.15,3.57.16,5.63,2.86,7.65,10.65,7.94,21.11,16.16,31.67,24.22.75.57,1.8.74,2.71,1.09Zm1.33,122.63c.46-3.37.18-5.53-2.53-7.52-9.99-7.38-19.73-15.09-29.58-22.66-1.53-1.17-3.13-2.26-4.76-3.43-1.03,3.67.12,6.05,3.08,7.65.58.31,1.07.78,1.6,1.18,10.59,8.15,21.18,16.3,32.2,24.78Zm-37.45-67.2c-.08,3-.5,5.13,1.94,6.96,11.03,8.27,21.89,16.75,32.82,25.15.71.54,1.48,1.01,2.28,1.55.79-3.41-.06-5.63-2.88-7.51-4.1-2.73-7.88-5.96-11.8-8.97-7.29-5.6-14.59-11.2-22.37-17.17Zm.16,22.38c-.93,3.49-.03,5.52,2.45,7.37,10.11,7.58,20.07,15.36,30.09,23.06,1.37,1.05,2.79,2.03,4.19,3.05.99-3.6-.28-5.73-3.03-7.7-6.33-4.54-12.41-9.43-18.58-14.17-4.95-3.8-9.9-7.6-15.11-11.61Zm36.35.29c.62-3.16.37-5.36-2.36-7.36-9.12-6.68-18.01-13.67-26.99-20.55-2.3-1.76-4.6-3.54-7.15-5.5-.6,3.13-.53,5.28,2.2,7.2,5.75,4.03,11.2,8.5,16.78,12.78,5.77,4.43,11.55,8.85,17.52,13.43Zm-.85-66.67c1.13-3.44.17-5.45-2.46-7.37-7.43-5.42-14.62-11.17-21.92-16.78-3.94-3.03-7.9-6.03-11.99-9.15-.75,3.34-.23,5.52,2.57,7.38,4.33,2.88,8.3,6.31,12.44,9.49,7.05,5.43,14.1,10.84,21.37,16.43Zm-35.96-11.13c-1.03,3.67.19,5.7,2.83,7.64,8.17,6.02,16.12,12.35,24.17,18.54,3.12,2.4,6.28,4.76,9.67,7.32.48-3.29.2-5.5-2.59-7.42-5.39-3.71-10.41-7.94-15.61-11.94-6.07-4.67-12.16-9.32-18.48-14.15Zm36.34,44.44c.99-3.49.14-5.79-2.66-7.56-2.4-1.52-4.56-3.41-6.82-5.14-8.93-6.86-17.86-13.72-26.92-20.67-.88,3.26-.33,5.59,2.52,7.42,2.94,1.89,5.6,4.22,8.39,6.36,8.42,6.47,16.83,12.94,25.49,19.59Zm-37.09-88.77c-1.19,3.63.13,5.63,2.76,7.56,7.72,5.69,15.22,11.68,22.82,17.53,3.56,2.73,7.17,5.41,10.91,8.23.6-3.52-.13-5.72-2.96-7.65-5.17-3.53-9.94-7.63-14.91-11.45-6.15-4.73-12.33-9.42-18.63-14.22Z"/>
  <path class="cls-5" d="m322.26,286.45c-52.71-35.73-100.34-78.44-146.14-122.44,0,0,20-.51,20-.51-10.57,11.38-21.32,22.58-32.25,33.62-33.08,33.09-67.25,65.35-104.93,93.26,16.65-26.54,35.8-51.38,55.41-75.71,22.52-27.83,46.53-54.63,71.04-80.72,0,0,10.24,9.97,10.24,9.97,45.31,44.51,89.39,90.87,126.64,142.52h0Z"/>
  <path class="cls-5" d="m0,297.53c30.45-9.78,62.2-14.92,93.76-19.63,87.25-11.89,176.94-14.98,263.71,2.56,38.52,6.52,77.62,9.08,116.72,9.71,79.12,1.7,158.3-6.14,237.48-8.08,11.98-.1,24.06-.07,35.97,1.51,3.96.56,7.96,1.31,11.65,2.83-7.74-1.76-15.76-1.2-23.61-.74-23.72,1.82-47.2,5.55-70.8,8.73-79,11.16-158.91,20.17-238.95,16.84-24.18-1.11-48.47-3.27-72.42-7.28-6.96-1.13-16.42-2.98-23.45-4.15-93.23-14.51-188.52-11.76-282.59-6.53-15.85,1.07-31.7,2.07-47.46,4.23h0Z"/>
  <path class="cls-3" d="m79.57,279.16c36.03-34.91,72.07-69.81,108.33-104.94,28.68,28.56,79.77,68.35,108.74,97.19-66.04-2.66-153.25-8.43-217.07,7.74Zm123.89-32.61l.08-14.04c-4.31-.02-8.43-.05-12.58-.07l-.08,14.04c4.26.02,8.31.04,12.58.07Zm.05-18.01l.07-13.88c-4.29-.02-8.34-.04-12.6-.07l-.07,13.88c4.33.02,8.45.05,12.6.07Zm-16.92,0l.07-13.88c-4.27-.02-8.36-.05-12.39-.07l-.07,13.88c4.17.02,8.13.04,12.39.07Zm-.21,17.91l.08-14.02-12.27-.07-.08,14.02c4.18.02,8.14.04,12.27.07Z"/>
  <text class="cls-2" transform="translate(369.12 194.5) rotate(.62)"><tspan x="0" y="0" xml:space="preserve">Im    o</tspan></text>
  <text class="cls-1" transform="translate(368.28 270.89) rotate(.62)"><tspan x="0" y="0" xml:space="preserve">La    is</tspan></text>
  <path class="cls-4" d="m580.43,117.5l-31.12,118.89c-.72,2.79-1.32,5.4-1.81,7.82-.49,2.42-1.03,5.11-1.63,8.05h-.37c-.48-2.95-1.01-5.73-1.6-8.34-.59-2.61-1.18-5.17-1.79-7.68l-29.59-119.11-9.75-.05-.85,158.22,8.07.04.6-110.45c.03-5.3.02-10.11-.02-14.45-.04-4.34-.13-8.2-.28-11.59h.25c.92,6.7,1.82,11.89,2.71,15.57l30.45,121.1,3.54.02,31.69-121.54c.42-1.54.88-3.53,1.37-5.95.49-2.42,1.03-5.29,1.63-8.6h.25c-.56,12.43-.86,21.44-.89,27.03l-.59,109.23,8.13.04.85-158.22-9.25-.05Z"/>
  <circle class="cls-5" cx="384.24" cy="105.51" r="6.7"/>
</svg>